<svg xmlns="http://www.w3.org/2000/svg" xmlns:xlink="http://www.w3.org/1999/xlink" width="170" height="63" viewBox="0 0 170 63">
  <defs>
    <clipPath id="clip-path">
      <rect id="Rectangle_1244" data-name="Rectangle 1244" width="170" height="63" transform="translate(-0.093)" fill="#fff" stroke="#707070" stroke-width="1"/>
    </clipPath>
  </defs>
  <g id="Mask_Group_91" data-name="Mask Group 91" transform="translate(0.093)" clip-path="url(#clip-path)">
    <g id="download-on-the-app-store-apple-logo-svg-vector" transform="translate(0.006 3.157)">
      <path id="Path_71" data-name="Path 71" d="M169.7,50.4a5.768,5.768,0,0,1-1.417,3.832,4.58,4.58,0,0,1-3.419,1.585H6.623c-2.671,0-4.838-2.422-4.842-5.417V7.2c0-3,2.17-5.423,4.842-5.424H164.861c2.671,0,4.836,2.429,4.835,5.424V50.4Z" transform="translate(-0.659 -0.658)" fill="#fff"/>
      <path id="Path_72" data-name="Path 72" d="M164.2,56.284H5.964C2.676,56.284.007,53.312,0,49.641V6.652C0,2.979,2.673,0,5.964,0H164.2c3.291,0,5.958,2.979,5.964,6.652V49.64c0,3.665-2.677,6.645-5.963,6.645Z" transform="translate(0 0)"/>
      <path id="Path_73" data-name="Path 73" d="M169.7,50.4a5.768,5.768,0,0,1-1.417,3.832,4.58,4.58,0,0,1-3.419,1.585H6.623c-2.671,0-4.838-2.422-4.842-5.417V7.2c0-3,2.17-5.423,4.842-5.424H164.861c2.671,0,4.836,2.429,4.835,5.424V50.4Z" transform="translate(-0.659 -0.658)"/>
      <path id="Path_74" data-name="Path 74" d="M47.462,29.543a7.309,7.309,0,0,1,3.482-6.133,7.489,7.489,0,0,0-5.9-3.187c-2.481-.261-4.887,1.484-6.151,1.484-1.289,0-3.235-1.459-5.332-1.416a7.852,7.852,0,0,0-6.609,4.03c-2.858,4.946-.726,12.215,2.012,16.213,1.37,1.959,2.97,4.144,5.065,4.068,2.049-.083,2.815-1.3,5.288-1.3,2.45,0,3.169,1.3,5.306,1.256,2.2-.034,3.584-1.967,4.906-3.943a16.161,16.161,0,0,0,2.244-4.568,7.071,7.071,0,0,1-4.313-6.5Zm-4.036-11.95a7.193,7.193,0,0,0,1.647-5.156,7.331,7.331,0,0,0-4.74,2.451,6.845,6.845,0,0,0-1.69,4.965,6.055,6.055,0,0,0,4.782-2.261Z" transform="translate(-9.465 -2.08)" fill="#fff"/>
      <g id="Group_2505" data-name="Group 2505" transform="translate(53.512 28.558)">
        <path id="Path_76" data-name="Path 76" d="M99.075,53.036H96.211l-1.569-4.929H89.189l-1.495,4.929H84.906l5.4-16.779h3.337l5.428,16.779Zm-4.906-7L92.75,41.658q-.225-.671-.846-3.161h-.05q-.25,1.07-.8,3.161l-1.395,4.381Zm18.777.8a6.85,6.85,0,0,1-1.677,4.878,4.919,4.919,0,0,1-3.731,1.594,3.735,3.735,0,0,1-3.456-1.716v6.348h-2.689V44.913q0-1.939-.1-3.977h2.365l.15,1.918h.05a4.784,4.784,0,0,1,7.657-.475A6.689,6.689,0,0,1,112.946,46.837Zm-2.739.1a4.987,4.987,0,0,0-.8-2.914,2.755,2.755,0,0,0-2.341-1.194,2.8,2.8,0,0,0-1.8.659,3.058,3.058,0,0,0-1.058,1.731,3.509,3.509,0,0,0-.125.818v2.019a3.236,3.236,0,0,0,.81,2.229,2.688,2.688,0,0,0,2.1.909,2.756,2.756,0,0,0,2.365-1.17A5.149,5.149,0,0,0,110.207,46.936Zm16.659-.1a6.85,6.85,0,0,1-1.677,4.878,4.921,4.921,0,0,1-3.732,1.594A3.735,3.735,0,0,1,118,51.593v6.348h-2.689V44.913q0-1.939-.1-3.977h2.365l.15,1.918h.05a4.785,4.785,0,0,1,7.658-.475,6.7,6.7,0,0,1,1.43,4.458Zm-2.741.1a4.987,4.987,0,0,0-.8-2.914,2.751,2.751,0,0,0-2.338-1.194,2.808,2.808,0,0,0-1.807.659,3.057,3.057,0,0,0-1.057,1.731,3.591,3.591,0,0,0-.126.818v2.019a3.247,3.247,0,0,0,.808,2.229,2.694,2.694,0,0,0,2.106.909,2.753,2.753,0,0,0,2.365-1.17A5.149,5.149,0,0,0,124.125,46.936Zm18.3,1.393a4.482,4.482,0,0,1-1.492,3.486,6.614,6.614,0,0,1-4.572,1.469,7.982,7.982,0,0,1-4.346-1.045L132.641,50a7.482,7.482,0,0,0,3.884,1.047,3.666,3.666,0,0,0,2.365-.685,2.236,2.236,0,0,0,.849-1.828,2.343,2.343,0,0,0-.7-1.719,6.478,6.478,0,0,0-2.316-1.294q-4.408-1.644-4.409-4.806a4.243,4.243,0,0,1,1.556-3.385,6.155,6.155,0,0,1,4.122-1.32,8.146,8.146,0,0,1,3.81.8L141.128,39a6.663,6.663,0,0,0-3.225-.772,3.28,3.28,0,0,0-2.225.7A2,2,0,0,0,135,40.442a2.055,2.055,0,0,0,.773,1.643,8.71,8.71,0,0,0,2.439,1.294,8.269,8.269,0,0,1,3.187,2.04,4.251,4.251,0,0,1,1.025,2.91Zm8.913-5.375h-2.964v5.874q0,2.241,1.569,2.239a4.725,4.725,0,0,0,1.194-.125l.074,2.041a6.094,6.094,0,0,1-2.091.3,3.223,3.223,0,0,1-2.491-.972,4.766,4.766,0,0,1-.9-3.262v-6.1h-1.766V40.932h1.766V38.716l2.641-.8v3.012h2.964v2.022Zm13.346,3.933a6.636,6.636,0,0,1-1.594,4.581,5.683,5.683,0,0,1-4.432,1.842,5.418,5.418,0,0,1-4.246-1.765,6.435,6.435,0,0,1-1.581-4.456,6.582,6.582,0,0,1,1.631-4.6,5.653,5.653,0,0,1,4.4-1.793,5.531,5.531,0,0,1,4.282,1.768,6.351,6.351,0,0,1,1.545,4.428Zm-2.787.062a5.417,5.417,0,0,0-.72-2.855,2.662,2.662,0,0,0-2.416-1.441,2.7,2.7,0,0,0-2.466,1.441,5.506,5.506,0,0,0-.721,2.9,5.4,5.4,0,0,0,.721,2.856,2.758,2.758,0,0,0,4.859-.024,5.438,5.438,0,0,0,.743-2.882ZM173.431,43.3a4.68,4.68,0,0,0-.848-.074,2.538,2.538,0,0,0-2.192,1.072,4.036,4.036,0,0,0-.671,2.389v6.348h-2.689V44.747q0-1.905-.078-3.809H169.3l.1,2.315h.074a4.15,4.15,0,0,1,1.344-1.918,3.252,3.252,0,0,1,1.943-.648,4.318,4.318,0,0,1,.672.049l0,2.565Zm12.025,3.113a6.3,6.3,0,0,1-.1,1.219h-8.067a3.508,3.508,0,0,0,1.17,2.741,4,4,0,0,0,2.638.845,8.924,8.924,0,0,0,3.264-.571l.421,1.865a10.093,10.093,0,0,1-4.057.748,5.882,5.882,0,0,1-4.422-1.654,6.115,6.115,0,0,1-1.605-4.443,6.929,6.929,0,0,1,1.5-4.554,5.154,5.154,0,0,1,4.231-1.94,4.51,4.51,0,0,1,3.961,1.94A6.529,6.529,0,0,1,185.456,46.414Zm-2.564-.7a3.638,3.638,0,0,0-.522-2.067,2.348,2.348,0,0,0-2.141-1.122,2.549,2.549,0,0,0-2.14,1.1,4.015,4.015,0,0,0-.8,2.09l5.6,0Z" transform="translate(-84.906 -36.008)" fill="#fff"/>
      </g>
      <g id="Group_2506" data-name="Group 2506" transform="translate(55.086 9.427)">
        <path id="Path_77" data-name="Path 77" d="M89.337,21.857a17.174,17.174,0,0,1-1.933-.1V13.647a14.641,14.641,0,0,1,2.276-.171c3.084,0,4.5,1.517,4.5,3.989C94.183,20.317,92.506,21.857,89.337,21.857Zm.452-7.342a5.4,5.4,0,0,0-1.064.086v6.167a6.98,6.98,0,0,0,.893.037c2.02,0,3.171-1.15,3.171-3.3A2.691,2.691,0,0,0,89.788,14.515Zm8.821,7.4a2.83,2.83,0,0,1-2.864-3.059,2.9,2.9,0,0,1,2.963-3.145,2.808,2.808,0,0,1,2.864,3.047A2.914,2.914,0,0,1,98.609,21.919Zm.05-5.238c-.955,0-1.566.893-1.566,2.141,0,1.224.624,2.117,1.554,2.117s1.554-.954,1.554-2.142c0-1.21-.612-2.116-1.541-2.116Zm12.822-.844-1.86,5.946H108.41l-.771-2.582a19.573,19.573,0,0,1-.478-1.92h-.025a12.871,12.871,0,0,1-.477,1.92l-.82,2.582h-1.225l-1.751-5.946h1.358l.673,2.827q.238,1.01.4,1.909h.025c.1-.5.256-1.126.489-1.9l.845-2.838h1.077l.808,2.778c.2.673.354,1.334.478,1.958h.035a17.114,17.114,0,0,1,.4-1.958l.723-2.778h1.3Zm6.848,5.946h-1.322V18.37c0-1.052-.4-1.579-1.2-1.579a1.373,1.373,0,0,0-1.322,1.456v3.537h-1.322V17.538c0-.526-.013-1.089-.049-1.7h1.163l.062.918h.037a2.137,2.137,0,0,1,1.885-1.039c1.249,0,2.068.954,2.068,2.508v3.561Zm3.645,0h-1.323V13.11h1.323Zm4.819.135a2.831,2.831,0,0,1-2.864-3.059,2.9,2.9,0,0,1,2.961-3.145,2.807,2.807,0,0,1,2.864,3.047A2.913,2.913,0,0,1,126.794,21.919Zm.049-5.238c-.955,0-1.566.893-1.566,2.141,0,1.224.626,2.117,1.553,2.117s1.554-.954,1.554-2.142C128.384,17.587,127.774,16.682,126.843,16.682Zm8.123,5.1-.1-.685h-.035a2.031,2.031,0,0,1-1.739.82,1.729,1.729,0,0,1-1.822-1.75c0-1.468,1.273-2.227,3.476-2.227v-.11c0-.783-.415-1.175-1.235-1.175a2.784,2.784,0,0,0-1.554.441l-.269-.869a3.8,3.8,0,0,1,2.042-.514c1.554,0,2.338.82,2.338,2.46v2.19a8.981,8.981,0,0,0,.086,1.42h-1.192Zm-.182-2.962c-1.468,0-2.2.356-2.2,1.2a.843.843,0,0,0,.907.929,1.266,1.266,0,0,0,1.3-1.21Zm7.706,2.962-.062-.954h-.037a1.994,1.994,0,0,1-1.909,1.089c-1.434,0-2.5-1.261-2.5-3.035,0-1.86,1.1-3.17,2.6-3.17a1.787,1.787,0,0,1,1.677.808h.026V13.11h1.323v7.072c0,.575.014,1.113.049,1.6h-1.177Zm-.2-3.5a1.439,1.439,0,0,0-1.392-1.542c-.98,0-1.579.869-1.579,2.092,0,1.2.622,2.02,1.553,2.02a1.484,1.484,0,0,0,1.419-1.579v-.991Zm9.711,3.634a2.83,2.83,0,0,1-2.863-3.059,2.9,2.9,0,0,1,2.961-3.145,2.807,2.807,0,0,1,2.864,3.047,2.912,2.912,0,0,1-2.963,3.156Zm.049-5.238c-.953,0-1.565.893-1.565,2.141,0,1.224.624,2.117,1.553,2.117s1.554-.954,1.554-2.142C153.6,17.587,152.987,16.682,152.055,16.682Zm10.021,5.1h-1.323V18.37c0-1.052-.4-1.579-1.2-1.579a1.372,1.372,0,0,0-1.32,1.456v3.537h-1.323V17.538c0-.526-.013-1.089-.049-1.7h1.163l.062.918h.037a2.136,2.136,0,0,1,1.884-1.04c1.249,0,2.07.954,2.07,2.508Zm8.893-4.955h-1.454v2.887c0,.735.255,1.1.769,1.1a2.6,2.6,0,0,0,.586-.062l.037,1a2.928,2.928,0,0,1-1.025.148c-1.042,0-1.665-.575-1.665-2.08v-3h-.868v-.991h.868V14.749l1.3-.392v1.48h1.454v.992Zm7,4.955h-1.32V18.4c0-1.064-.4-1.6-1.2-1.6a1.3,1.3,0,0,0-1.323,1.407v3.585H172.8V13.11h1.32v3.572h.026a2.005,2.005,0,0,1,1.788-.967c1.259,0,2.028.978,2.028,2.533v3.537Zm7.169-2.655h-3.966a1.707,1.707,0,0,0,1.874,1.761,4.468,4.468,0,0,0,1.6-.281l.206.918a4.966,4.966,0,0,1-2,.367,2.761,2.761,0,0,1-2.961-3,2.9,2.9,0,0,1,2.812-3.194c1.52,0,2.473,1.126,2.473,2.827a2.546,2.546,0,0,1-.045.6Zm-1.212-.942c0-.918-.463-1.566-1.308-1.566a1.568,1.568,0,0,0-1.445,1.566Z" transform="translate(-87.403 -13.11)" fill="#fff"/>
      </g>
    </g>
  </g>
</svg>
