<svg xmlns="http://www.w3.org/2000/svg" xmlns:xlink="http://www.w3.org/1999/xlink" width="170" height="63" viewBox="0 0 170 63">
  <defs>
    <clipPath id="clip-path">
      <rect id="Rectangle_1242" data-name="Rectangle 1242" width="170" height="63" transform="translate(0 -0.179)" fill="#fff" stroke="#707070" stroke-width="1"/>
    </clipPath>
    <clipPath id="clip-path-2">
      <path id="Path_25" data-name="Path 25" d="M44.491,31.168l-7.673-4.43-14.8-8.546c-.822-.474-1.641-.187-1.641.8V53.814c0,.743.585,1.064,1.3.652l15.142-8.743,7.673-4.43,7.376-4.258c.865-.5.782-1.185.052-1.579s-7.427-4.288-7.427-4.288Z" transform="translate(-20.377 -17.969)"/>
    </clipPath>
    <linearGradient id="linear-gradient" x1="1.441" y1="1.519" x2="1.441" y2="1.436" gradientUnits="objectBoundingBox">
      <stop offset="0" stop-color="#257cb0"/>
      <stop offset="0.286" stop-color="#4a93b5"/>
      <stop offset="0.767" stop-color="#78bcbb"/>
      <stop offset="1" stop-color="#89cfbd"/>
    </linearGradient>
    <linearGradient id="linear-gradient-2" x1="1.103" y1="2.982" x2="1.187" y2="2.982" gradientUnits="objectBoundingBox">
      <stop offset="0" stop-color="#52c1ad"/>
      <stop offset="1" stop-color="#dee89a"/>
    </linearGradient>
    <linearGradient id="linear-gradient-3" x1="1.145" y1="1.94" x2="1.145" y2="1.857" gradientUnits="objectBoundingBox">
      <stop offset="0" stop-color="#ec413d"/>
      <stop offset="0.167" stop-color="#da4452"/>
      <stop offset="0.575" stop-color="#b0487a"/>
      <stop offset="0.862" stop-color="#954a92"/>
      <stop offset="1" stop-color="#8a4a9d"/>
    </linearGradient>
    <linearGradient id="linear-gradient-4" x1="0.704" y1="4.18" x2="0.704" y2="4.097" gradientUnits="objectBoundingBox">
      <stop offset="0" stop-color="#f58879"/>
      <stop offset="0.119" stop-color="#f69079"/>
      <stop offset="0.713" stop-color="#fcb877"/>
      <stop offset="1" stop-color="#fec874"/>
    </linearGradient>
  </defs>
  <g id="Mask_Group_87" data-name="Mask Group 87" transform="translate(0 0.179)" clip-path="url(#clip-path)">
    <g id="google-play-download-android-app-logo-svg-vector" transform="translate(0 3.693)">
      <path id="Path_23" data-name="Path 23" d="M170.294,48.177a7.522,7.522,0,0,1-7.521,7.523H7.648A7.523,7.523,0,0,1,.126,48.177V7.558A7.523,7.523,0,0,1,7.648.036H162.773a7.522,7.522,0,0,1,7.521,7.522V48.177h0Z" transform="translate(-0.126 -0.036)"/>
      <g id="Group_2489" data-name="Group 2489" transform="translate(12.764 11.303)" clip-path="url(#clip-path-2)">
        <path id="Path_24" data-name="Path 24" d="M20.378,17.039v37.7L39.386,35.887Z" transform="translate(-20.378 -17.625)" fill="url(#linear-gradient)"/>
      </g>
      <g id="Group_2490" data-name="Group 2490" transform="translate(12.764 11.303)" clip-path="url(#clip-path-2)">
        <path id="Path_26" data-name="Path 26" d="M44.491,30.744l-7.673-4.43L20.378,16.822v.137L39.386,35.807Z" transform="translate(-20.378 -17.545)" fill="url(#linear-gradient-2)"/>
      </g>
      <g id="Group_2491" data-name="Group 2491" transform="translate(12.764 11.303)" clip-path="url(#clip-path-2)">
        <path id="Path_28" data-name="Path 28" d="M20.378,65.792v.137l16.441-9.493,7.673-4.43-5.1-5.062Z" transform="translate(-20.378 -28.683)" fill="url(#linear-gradient-3)"/>
      </g>
      <g id="Group_2492" data-name="Group 2492" transform="translate(12.764 11.303)" clip-path="url(#clip-path-2)">
        <path id="Path_30" data-name="Path 30" d="M55.643,38.912l-5.105,5.063,5.1,5.062,8.769-5.062Z" transform="translate(-31.529 -25.713)" fill="url(#linear-gradient-4)"/>
      </g>
      <path id="Path_32" data-name="Path 32" d="M162.854,48.97a4.744,4.744,0,0,1-1.955-.395,3.686,3.686,0,0,1-1.486-1.215h-.12a14.74,14.74,0,0,1,.12,1.82v4.511h-1.659V37.807h1.35l.23,1.5h.08a3.859,3.859,0,0,1,1.491-1.3,4.528,4.528,0,0,1,1.95-.4,4.052,4.052,0,0,1,3.366,1.49,6.561,6.561,0,0,1,1.185,4.181,6.531,6.531,0,0,1-1.2,4.2,4.059,4.059,0,0,1-3.346,1.495Zm-.24-9.952a2.943,2.943,0,0,0-2.43.93,4.79,4.79,0,0,0-.771,2.961v.37a5.486,5.486,0,0,0,.771,3.306,2.929,2.929,0,0,0,2.47.995,2.57,2.57,0,0,0,2.226-1.15,5.458,5.458,0,0,0,.8-3.171,5.254,5.254,0,0,0-.8-3.146A2.648,2.648,0,0,0,162.614,39.018Zm8.636,9.752h-1.66V33.206h1.66Zm9.546,0-.33-1.56h-.08a4.6,4.6,0,0,1-1.636,1.4,4.975,4.975,0,0,1-2.035.365,3.663,3.663,0,0,1-2.556-.84,3.062,3.062,0,0,1-.925-2.39q0-3.32,5.311-3.481l1.861-.06v-.68a2.777,2.777,0,0,0-.556-1.905A2.282,2.282,0,0,0,178.075,39a7.234,7.234,0,0,0-3.1.84l-.51-1.27a7.8,7.8,0,0,1,1.776-.69,7.688,7.688,0,0,1,1.935-.25,4.177,4.177,0,0,1,2.906.87,3.634,3.634,0,0,1,.945,2.791v7.481H180.8Zm-3.751-1.17a3.372,3.372,0,0,0,2.435-.85,3.148,3.148,0,0,0,.885-2.381v-.99l-1.661.07a6.04,6.04,0,0,0-2.856.616,1.855,1.855,0,0,0-.875,1.7,1.707,1.707,0,0,0,.545,1.37,2.261,2.261,0,0,0,1.526.47Zm5.945-9.793h1.78l2.4,6.252a23.889,23.889,0,0,1,.981,3.091h.08q.13-.511.545-1.746t2.715-7.6h1.781L188.561,50.29a6.228,6.228,0,0,1-1.636,2.627,3.478,3.478,0,0,1-2.295.774,6.7,6.7,0,0,1-1.5-.17v-1.33a5.8,5.8,0,0,0,1.231.12,2.536,2.536,0,0,0,2.441-1.921l.61-1.56ZM132.1,38.826a3.735,3.735,0,0,1-.3,6.352,1.614,1.614,0,0,0-.642,1.125,1.257,1.257,0,0,0,.6.985l.826.641c1.009.849,1.925,1.629,1.925,3.212,0,2.155-2.087,4.333-6.03,4.333-3.325,0-4.93-1.582-4.93-3.279a3.3,3.3,0,0,1,1.766-2.8,9.884,9.884,0,0,1,4.379-1.055A2.4,2.4,0,0,1,129,46.783a2.072,2.072,0,0,1,.229-.9c-.253.023-.505.046-.735.046a3.625,3.625,0,0,1-3.805-3.6,4.124,4.124,0,0,1,1.467-3.072A6.253,6.253,0,0,1,130.262,38h4.722l-1.468.825H132.1Zm-1.629,10.181a3.559,3.559,0,0,0-.527-.024,9.173,9.173,0,0,0-2.408.369,2.575,2.575,0,0,0-1.972,2.361c0,1.627,1.583,2.8,4.037,2.8,2.2,0,3.371-1.057,3.371-2.477,0-1.172-.757-1.788-2.5-3.027Zm.665-4.357a2.319,2.319,0,0,0,.572-1.674c0-1.651-.985-4.219-2.888-4.219a2.141,2.141,0,0,0-1.605.757,2.649,2.649,0,0,0-.505,1.7c0,1.536.894,4.082,2.867,4.082a2.347,2.347,0,0,0,1.559-.642Zm-13.472,3.99a5.4,5.4,0,0,1-5.585-5.4,5.672,5.672,0,0,1,5.93-5.562,5.352,5.352,0,0,1,5.47,5.4A5.593,5.593,0,0,1,117.661,48.64Zm2.861-1.854a4.141,4.141,0,0,0,.688-2.542c0-2.015-.962-5.86-3.8-5.86a3.187,3.187,0,0,0-2.06.78,3.463,3.463,0,0,0-1.054,2.793c0,2.265,1.122,6,3.893,6a2.925,2.925,0,0,0,2.334-1.166ZM105.253,48.64a5.4,5.4,0,0,1-5.586-5.4,5.673,5.673,0,0,1,5.93-5.562,5.352,5.352,0,0,1,5.471,5.4A5.593,5.593,0,0,1,105.253,48.64Zm2.862-1.854a4.148,4.148,0,0,0,.687-2.542c0-2.015-.962-5.86-3.8-5.86a3.187,3.187,0,0,0-2.06.78,3.462,3.462,0,0,0-1.053,2.793c0,2.265,1.121,6,3.892,6A2.927,2.927,0,0,0,108.115,46.786Zm-10.2,1.5-3.292.76a24.393,24.393,0,0,1-3.8.39c-6.353,0-8.769-4.672-8.769-8.332,0-4.464,3.429-8.606,9.3-8.606a13.262,13.262,0,0,1,3.521.483A8.98,8.98,0,0,1,97.918,34.4l-1.911,1.818L95.2,36.4l.575-.921a6.579,6.579,0,0,0-4.925-2.163c-3.637,0-6.376,2.763-6.376,6.79a8.139,8.139,0,0,0,8.147,8.4,6.854,6.854,0,0,0,2.923-.576v-3.7l-3.475.184,1.84-.991h4.88l-.6.575a.537.537,0,0,0-.231.368c-.024.208-.046.876-.046,1.106v2.809h0Z" transform="translate(-30.421 -12.037)" fill="#f9f9f9"/>
      <path id="Path_33" data-name="Path 33" d="M170.125,47.318c-.76-.069-.919-.207-.919-1.105V33.186c0-.05.008-.1.012-.148.093-.805.323-.943,1.037-1.358h-3.292l-1.727.829H167V46.719c0,.459-.091.529-.621,1.219h4.074l.852-.505c-.391-.048-.783-.07-1.175-.116Zm9.365.212c-.25.137-.5.3-.753.412a5.327,5.327,0,0,1-2.219.435,4.884,4.884,0,0,1-3.04-.892,5.916,5.916,0,0,1-2.33-4.823,5.18,5.18,0,0,1,5.234-5.279,4.441,4.441,0,0,1,2.355.64,3.784,3.784,0,0,1,1.6,2.262l-5.37,2.172-1.76.137c.571,2.9,2.536,4.593,4.708,4.593a5.906,5.906,0,0,0,2.788-.8l-1.211,1.142Zm-2.148-6.812c.434-.159.662-.3.662-.617a2.268,2.268,0,0,0-2.263-1.966c-.915,0-2.628.709-2.628,3.177,0,.389.046.8.07,1.213l4.16-1.807Zm4.354-3.179v1.508h-.183V37.537h-.5v-.156h1.181v.156h-.5Zm2.056,1.508V37.523h-.008l-.464,1.522h-.143l-.468-1.522h-.006v1.522H182.5V37.381h.285l.424,1.345h.006l.418-1.345h.289v1.664h-.165Z" transform="translate(-61.175 -11.736)" fill="#f9f9f9"/>
      <path id="Path_34" data-name="Path 34" d="M86.654,22.589H85.511a7.555,7.555,0,0,0-.325-1.337H83.534a6.909,6.909,0,0,0-.336,1.337H82.122q0-.139.834-2.287a17.958,17.958,0,0,0,.834-2.366h1.351a19.689,19.689,0,0,0,.756,2.332A20.475,20.475,0,0,1,86.654,22.589ZM85,20.57a20.1,20.1,0,0,1-.611-1.994h-.057q0,.139-.632,1.994H85Zm6.26,2.019H90.38a8.722,8.722,0,0,0-.983-1.547,8.523,8.523,0,0,1-1.172-2.019h-.057a12.589,12.589,0,0,1,.09,1.415q0,.883.05,2.152h-.879q.053-1.108.054-2.434,0-1.3-.054-2.219H88.49a6.715,6.715,0,0,0,.883,1.512,8.893,8.893,0,0,1,1.079,1.905h.054a13.492,13.492,0,0,1-.086-1.43q0-.968-.05-1.987h.894q-.05.886-.05,2.219T91.263,22.589Zm5.18-2.488a2.637,2.637,0,0,1-.65,1.773,2.272,2.272,0,0,1-1.823.758q-.529,0-1.458-.043.046-1.079.047-2.434,0-1.3-.047-2.219h.625q.154,0,.457-.011c.2-.007.335-.011.4-.011a2.41,2.41,0,0,1,1.871.643,2.223,2.223,0,0,1,.581,1.544Zm-.975.154a1.723,1.723,0,0,0-.4-1.156,1.518,1.518,0,0,0-1.222-.47,3.726,3.726,0,0,0-.422.032q.035.715.036,1.494,0,.854.036,1.694a2.365,2.365,0,0,0,.464.047,1.35,1.35,0,0,0,1.138-.477,1.842,1.842,0,0,0,.371-1.163Zm5.752,2.334h-1.058a7.019,7.019,0,0,0-.636-1.562.833.833,0,0,0-.715-.3q-.208,0-.4,0,0,.919.032,1.855h-.993q.046-1.079.047-2.434,0-1.3-.047-2.219h.618q.107,0,.449-.011t.631-.011q1.64,0,1.641,1.122a1.259,1.259,0,0,1-.936,1.24v.054a1.116,1.116,0,0,1,.632.563A12.469,12.469,0,0,1,101.219,22.589ZM99.879,19.3q0-.711-.915-.711a3.14,3.14,0,0,0-.593.05q.039.554.039,1.444c.131,0,.242.007.332.007Q99.879,20.091,99.879,19.3Zm6.463.876A2.566,2.566,0,0,1,105.67,22a2.181,2.181,0,0,1-1.662.722,2.1,2.1,0,0,1-1.58-.663,2.334,2.334,0,0,1-.636-1.685,2.566,2.566,0,0,1,.672-1.819,2.18,2.18,0,0,1,1.662-.722,2.1,2.1,0,0,1,1.58.661,2.333,2.333,0,0,1,.636,1.687Zm-.986.1a1.846,1.846,0,0,0-.382-1.212,1.177,1.177,0,0,0-.944-.464,1.09,1.09,0,0,0-.886.468,1.869,1.869,0,0,0-.365,1.183,1.841,1.841,0,0,0,.384,1.21,1.177,1.177,0,0,0,.942.466,1.089,1.089,0,0,0,.886-.47,1.87,1.87,0,0,0,.365-1.181Zm3.007,2.309h-1.011q.046-1.108.047-2.434,0-1.3-.047-2.219h1.011q-.046.9-.047,2.219Q108.316,21.5,108.363,22.589Zm5.18-2.488a2.637,2.637,0,0,1-.65,1.773,2.272,2.272,0,0,1-1.823.758q-.529,0-1.458-.043.046-1.079.047-2.434,0-1.3-.047-2.219h.625q.154,0,.457-.011t.4-.011a2.41,2.41,0,0,1,1.871.643,2.223,2.223,0,0,1,.581,1.544Zm-.975.154a1.723,1.723,0,0,0-.4-1.156,1.518,1.518,0,0,0-1.222-.47,3.725,3.725,0,0,0-.422.032q.035.715.036,1.494,0,.854.036,1.694a2.365,2.365,0,0,0,.464.047,1.35,1.35,0,0,0,1.138-.477A1.841,1.841,0,0,0,112.568,20.255Zm7.848,2.334h-1.144a7.537,7.537,0,0,0-.326-1.337h-1.651a6.909,6.909,0,0,0-.336,1.337h-1.075q0-.139.834-2.287a17.951,17.951,0,0,0,.834-2.366H118.9a19.768,19.768,0,0,0,.756,2.332,20.561,20.561,0,0,1,.756,2.321Zm-1.651-2.019a20.161,20.161,0,0,1-.612-1.994H118.1q0,.139-.632,1.994h1.3Zm5.82-1.415a1.393,1.393,0,0,1-.634,1.262,2.822,2.822,0,0,1-1.556.408c-.112,0-.192,0-.239-.007q0,.672.039,1.773h-1q.046-1.033.047-2.434,0-1.287-.047-2.219h.622q.132,0,.507-.011t.65-.011a2.045,2.045,0,0,1,1.147.307A1.039,1.039,0,0,1,124.584,19.154Zm-.922.2q0-.765-1.015-.765a2.882,2.882,0,0,0-.536.054q.039.676.039,1.53c.06,0,.129.007.207.007Q123.662,20.177,123.662,19.351Zm5.208-.2a1.394,1.394,0,0,1-.634,1.262,2.824,2.824,0,0,1-1.557.408c-.112,0-.192,0-.24-.007q0,.672.039,1.773h-1q.046-1.033.047-2.434,0-1.287-.047-2.219h.622q.132,0,.507-.011t.65-.011a2.045,2.045,0,0,1,1.147.307,1.04,1.04,0,0,1,.469.932Zm-.922.2q0-.765-1.015-.765a2.882,2.882,0,0,0-.536.054q.039.676.039,1.53c.06,0,.129.007.207.007Q127.948,20.177,127.948,19.351Zm7.93.826A2.566,2.566,0,0,1,135.207,22a2.179,2.179,0,0,1-1.662.722,2.1,2.1,0,0,1-1.58-.663,2.335,2.335,0,0,1-.636-1.685A2.566,2.566,0,0,1,132,18.551a2.18,2.18,0,0,1,1.662-.722,2.1,2.1,0,0,1,1.58.661,2.334,2.334,0,0,1,.636,1.687Zm-.986.1a1.846,1.846,0,0,0-.382-1.212,1.177,1.177,0,0,0-.943-.464,1.09,1.09,0,0,0-.886.468,1.869,1.869,0,0,0-.365,1.183,1.841,1.841,0,0,0,.384,1.21,1.176,1.176,0,0,0,.942.466,1.088,1.088,0,0,0,.886-.47,1.868,1.868,0,0,0,.365-1.181Zm5.831,2.309h-.883a8.7,8.7,0,0,0-.983-1.547,8.523,8.523,0,0,1-1.172-2.019h-.057a12.591,12.591,0,0,1,.09,1.415q0,.883.05,2.152h-.879q.053-1.108.054-2.434,0-1.3-.054-2.219h1.061a6.729,6.729,0,0,0,.883,1.512,8.88,8.88,0,0,1,1.079,1.905h.054a13.482,13.482,0,0,1-.086-1.43q0-.968-.05-1.987h.894q-.05.886-.05,2.219T140.723,22.589Z" transform="translate(-30.444 -6.615)" fill="#f9f9fa"/>
    </g>
  </g>
</svg>
