<svg xmlns="http://www.w3.org/2000/svg" xmlns:xlink="http://www.w3.org/1999/xlink" width="16" height="16" viewBox="0 0 16 16">
  <defs>
    <clipPath id="clip-path">
      <rect id="Rectangle_1057" data-name="Rectangle 1057" width="16" height="16" transform="translate(0.115 0.177)" fill="#777" stroke="#707070" stroke-width="1"/>
    </clipPath>
  </defs>
  <g id="Mask_Group_73" data-name="Mask Group 73" transform="translate(-0.115 -0.178)" clip-path="url(#clip-path)">
    <g id="instagram" transform="translate(0.226 0.197)">
      <g id="Group_1989" data-name="Group 1989" transform="translate(12.155 2.935)">
        <g id="Group_1988" data-name="Group 1988">
          <path id="Path_203" data-name="Path 203" d="M11.115,2.591a.385.385,0,1,0,.385.385A.386.386,0,0,0,11.115,2.591Z" transform="translate(-10.73 -2.591)" fill="#777"/>
        </g>
      </g>
      <g id="Group_1991" data-name="Group 1991" transform="translate(4.516 4.516)">
        <g id="Group_1990" data-name="Group 1990">
          <path id="Path_204" data-name="Path 204" d="M7.4,3.987A3.413,3.413,0,1,0,10.814,7.4,3.417,3.417,0,0,0,7.4,3.987Z" transform="translate(-3.987 -3.987)" fill="#777"/>
        </g>
      </g>
      <g id="Group_1993" data-name="Group 1993">
        <g id="Group_1992" data-name="Group 1992">
          <path id="Path_205" data-name="Path 205" d="M11.512,0H4.348A4.353,4.353,0,0,0,0,4.348v7.164A4.353,4.353,0,0,0,4.348,15.86h7.164a4.353,4.353,0,0,0,4.348-4.348V4.348A4.353,4.353,0,0,0,11.512,0ZM7.93,12.28a4.35,4.35,0,1,1,4.35-4.35A4.355,4.355,0,0,1,7.93,12.28Zm4.61-7.639A1.322,1.322,0,1,1,13.862,3.32,1.323,1.323,0,0,1,12.54,4.641Z" fill="#777"/>
        </g>
      </g>
    </g>
  </g>
</svg>
