<svg id="Group_2511" data-name="Group 2511" xmlns="http://www.w3.org/2000/svg" width="16" height="16" viewBox="0 0 16 16">
  <path id="Path_209" data-name="Path 209" d="M16.987,9.9a11.981,11.981,0,0,0-.661-4.272,2.117,2.117,0,0,0-1.25-1.034A40.134,40.134,0,0,0,8.993,4.27a40.172,40.172,0,0,0-6.062.31,1.961,1.961,0,0,0-1.061.765,6.952,6.952,0,0,0-.8,3.568c-.105,2.232-.105,4.471,0,6.7a13.8,13.8,0,0,0,.218,2.069A3.866,3.866,0,0,0,1.8,19.093a1.98,1.98,0,0,0,1.083.807,23.2,23.2,0,0,0,4.724.341,54.44,54.44,0,0,0,7.413-.29,1.973,1.973,0,0,0,1.112-.807,2.92,2.92,0,0,0,.443-1.034,15.253,15.253,0,0,0,.378-3.517C16.987,14.014,16.987,10.518,16.987,9.9ZM7.35,15.214v-6.4l4.3,3.217C10.446,12.98,8.854,14.055,7.35,15.214Z" transform="translate(-0.991 -4.259)" fill="#777"/>
</svg>
