<svg xmlns="http://www.w3.org/2000/svg" xmlns:xlink="http://www.w3.org/1999/xlink" width="14" height="14" viewBox="0 0 14 14">
  <defs>
    <clipPath id="clip-path">
      <rect id="Rectangle_1590" data-name="Rectangle 1590" width="14" height="14" transform="translate(118 807)" fill="rgba(0,0,0,0.25)"/>
    </clipPath>
  </defs>
  <g id="Mask_Group_302" data-name="Mask Group 302" transform="translate(-118 -807)" clip-path="url(#clip-path)">
    <g id="log_out" data-name="log out" transform="translate(118 807)">
      <path id="Path_723" data-name="Path 723" d="M7.6.6a7,7,0,1,0,7,7,7,7,0,0,0-7-7ZM7.133,3.867a.467.467,0,0,1,.933,0V7.133a.467.467,0,1,1-.933,0ZM7.6,11.8A4.207,4.207,0,0,1,3.4,7.6,4.163,4.163,0,0,1,4.977,4.324a.467.467,0,1,1,.579.728,3.267,3.267,0,1,0,4.088,0,.467.467,0,0,1,.579-.728A4.163,4.163,0,0,1,11.8,7.6,4.207,4.207,0,0,1,7.6,11.8Z" transform="translate(-0.6 -0.6)" fill="rgba(0,0,0,0.25)"/>
    </g>
  </g>
</svg>
