<svg xmlns="http://www.w3.org/2000/svg" xmlns:xlink="http://www.w3.org/1999/xlink" width="24" height="24" viewBox="0 0 24 24">
  <defs>
    <clipPath id="clip-path">
      <rect id="Rectangle_6817" data-name="Rectangle 6817" width="24" height="24" transform="translate(98 282)" fill="#d29e10" stroke="#707070" stroke-width="1"/>
    </clipPath>
  </defs>
  <g id="Mask_Group_453" data-name="Mask Group 453" transform="translate(-98 -282)" clip-path="url(#clip-path)">
    <g id="category" transform="translate(97.826 281.828)">
      <path id="Path_14053" data-name="Path 14053" d="M8.3,10.472H2.42A2.248,2.248,0,0,1,.174,8.226V2.419A2.248,2.248,0,0,1,2.42.174H8.3a2.248,2.248,0,0,1,2.245,2.245V8.226A2.248,2.248,0,0,1,8.3,10.472ZM2.42,1.913a.508.508,0,0,0-.507.506V8.226a.508.508,0,0,0,.507.506H8.3a.507.507,0,0,0,.506-.506V2.419A.507.507,0,0,0,8.3,1.913Z" fill="#d29e10"/>
      <path id="Path_14054" data-name="Path 14054" d="M8.329,24.17H2.448A2.249,2.249,0,0,1,.2,21.924V16.118a2.248,2.248,0,0,1,2.246-2.245h5.88a2.248,2.248,0,0,1,2.244,2.245v5.806A2.248,2.248,0,0,1,8.329,24.17Zm-5.88-8.559a.508.508,0,0,0-.507.506v5.806a.508.508,0,0,0,.507.507h5.88a.508.508,0,0,0,.506-.507V16.118a.507.507,0,0,0-.506-.506Z" fill="#d29e10"/>
      <path id="Path_14055" data-name="Path 14055" d="M21.925,24.17h-5.88A2.249,2.249,0,0,1,13.8,21.924V16.118a2.248,2.248,0,0,1,2.246-2.245h5.88a2.248,2.248,0,0,1,2.245,2.245v5.806a2.248,2.248,0,0,1-2.245,2.246Zm-5.88-8.555a.508.508,0,0,0-.507.506v5.806a.508.508,0,0,0,.507.507h5.88a.508.508,0,0,0,.506-.507v-5.81a.507.507,0,0,0-.506-.506Z" fill="#d29e10"/>
      <path id="Path_14056" data-name="Path 14056" d="M18.989,10.472a5.147,5.147,0,1,1,5.185-5.147,5.147,5.147,0,0,1-5.185,5.147Zm0-8.555a3.408,3.408,0,1,0,3.446,3.408,3.408,3.408,0,0,0-3.446-3.408Z" fill="#d29e10"/>
    </g>
  </g>
</svg>
