<svg xmlns="http://www.w3.org/2000/svg" xmlns:xlink="http://www.w3.org/1999/xlink" width="14" height="14" viewBox="0 0 14 14">
  <defs>
    <clipPath id="clip-path">
      <rect id="Rectangle_1925" data-name="Rectangle 1925" width="14" height="14" transform="translate(792 237)" fill="#707070" stroke="#707070" stroke-width="1"/>
    </clipPath>
  </defs>
  <g id="Mask_Group_414" data-name="Mask Group 414" transform="translate(-792 -237)" clip-path="url(#clip-path)">
    <g id="hideview" transform="translate(792 237.994)">
      <g id="Group_3745" data-name="Group 3745">
        <g id="Group_3744" data-name="Group 3744">
          <path id="Path_936" data-name="Path 936" d="M13.9,6.848A13.275,13.275,0,0,0,10.88,3.969L12.853,2a.5.5,0,1,0-.695-.719l-.012.012L9.991,3.442A6.466,6.466,0,0,0,7,2.642C3.2,2.642.221,6.676.1,6.848a.5.5,0,0,0,0,.588A13.275,13.275,0,0,0,3.12,10.315L1.147,12.288a.5.5,0,1,0,.695.719L1.854,13l2.155-2.153a6.466,6.466,0,0,0,2.991.8c3.8,0,6.779-4.034,6.9-4.206A.5.5,0,0,0,13.9,6.848ZM3.847,9.59A12.45,12.45,0,0,1,1.137,7.142c.736-.891,3.123-3.5,5.863-3.5a5.293,5.293,0,0,1,2.244.55l-.868.868a2.5,2.5,0,0,0-3.46,3.46ZM8.35,6.5a1.475,1.475,0,0,1,.15.643A1.5,1.5,0,0,1,7,8.642a1.475,1.475,0,0,1-.643-.15ZM5.65,7.784a1.475,1.475,0,0,1-.15-.643A1.5,1.5,0,0,1,7,5.642a1.475,1.475,0,0,1,.643.15ZM7,10.642a5.293,5.293,0,0,1-2.244-.55l.868-.868a2.5,2.5,0,0,0,3.46-3.46l1.07-1.07a12.45,12.45,0,0,1,2.709,2.448C12.127,8.033,9.74,10.642,7,10.642Z" transform="translate(0 -1.136)" fill="#707070"/>
        </g>
      </g>
    </g>
  </g>
</svg>
